<?xml version="1.0" encoding="UTF-8" standalone="no"?>
<!-- Created with Inkscape (http://www.inkscape.org/) -->

<svg
   xmlns:dc="http://purl.org/dc/elements/1.1/"
   xmlns:cc="http://creativecommons.org/ns#"
   xmlns:rdf="http://www.w3.org/1999/02/22-rdf-syntax-ns#"
   xmlns:svg="http://www.w3.org/2000/svg"
   xmlns="http://www.w3.org/2000/svg"
   xmlns:sodipodi="http://sodipodi.sourceforge.net/DTD/sodipodi-0.dtd"
   xmlns:inkscape="http://www.inkscape.org/namespaces/inkscape"
   id="svg2"
   version="1.1"
   inkscape:version="0.92.4 5da689c313, 2019-01-14"
   xml:space="preserve"
   width="113.92483"
   height="113.92306"
   viewBox="0 0 113.92483 113.92306"
   sodipodi:docname="git.svg"><metadata
     id="metadata8"><rdf:RDF><cc:Work
         rdf:about=""><dc:format>image/svg+xml</dc:format><dc:type
           rdf:resource="http://purl.org/dc/dcmitype/StillImage" /><dc:title /></cc:Work></rdf:RDF></metadata><defs
     id="defs6" /><sodipodi:namedview
     pagecolor="#ffffff"
     bordercolor="#666666"
     borderopacity="1"
     objecttolerance="10"
     gridtolerance="10"
     guidetolerance="10"
     inkscape:pageopacity="0"
     inkscape:pageshadow="2"
     inkscape:window-width="1920"
     inkscape:window-height="1024"
     id="namedview4"
     showgrid="false"
     inkscape:zoom="2.697486"
     inkscape:cx="68.26898"
     inkscape:cy="54.040649"
     inkscape:window-x="0"
     inkscape:window-y="28"
     inkscape:window-maximized="1"
     inkscape:current-layer="g10" /><g
     id="g10"
     inkscape:groupmode="layer"
     inkscape:label="ink_ext_XXXXXX"
     transform="matrix(1.25,0,0,-1.25,-6.1e-4,113.92294)"><path
       inkscape:connector-curvature="0"
       id="path20"
       style="fill:#100f0d;fill-opacity:1;fill-rule:nonzero;stroke:none;stroke-width:0.1"
       d="m 89.4215,49.6285 -39.7938,39.791 c -2.2898,2.2918 -6.0066,2.2918 -8.2996,0 L 33.0652,81.1559 43.5469,70.6738 c 2.4367,0.8227 5.2297,0.2711 7.1711,-1.6707 1.9515,-1.9539 2.4992,-4.7707 1.6558,-7.2156 l 10.1024,-10.102 c 2.4441,0.8422 5.264,0.2981 7.2156,-1.657 2.7285,-2.7277 2.7285,-7.1476 0,-9.8762 -2.7289,-2.7293 -7.1488,-2.7293 -9.8789,0 -2.0516,2.0532 -2.559,5.0676 -1.5199,7.5954 l -9.4215,9.4218 -8e-4,-24.7929 c 0.6652,-0.3293 1.293,-0.7688 1.8473,-1.3207 2.7277,-2.7274 2.7277,-7.1465 0,-9.8782 -2.7285,-2.7273 -7.1504,-2.7273 -9.8762,0 -2.7281,2.7317 -2.7281,7.1508 0,9.8782 0.6742,0.673 1.4543,1.1824 2.2867,1.5238 v 25.023 c -0.8324,0.3403 -1.6113,0.8461 -2.2867,1.5239 -2.0664,2.0648 -2.5641,5.0976 -1.5043,7.6351 L 29.0051,77.0961 1.71992,49.8125 c -2.292576,-2.2937 -2.292576,-6.0105 0,-8.3027 L 41.5133,1.71875 c 2.291,-2.291797 6.0066,-2.291797 8.3008,0 L 89.4215,41.3254 c 2.2918,2.293 2.2918,6.0109 0,8.3031" /></g></svg>